<svg xmlns:xlink="http://www.w3.org/1999/xlink" width="99" xmlns="http://www.w3.org/2000/svg" height="100" id="screenshot-55b93b1f-5695-803a-8003-023dc3919c8f" viewBox="0 0 99 100" style="-webkit-print-color-adjust: exact;" fill="none" version="1.1"><g id="shape-55b93b1f-5695-803a-8003-023dc3919c8f"><defs><clipPath class="frame-clip-def frame-clip" id="frame-clip-55b93b1f-5695-803a-8003-023dc3919c8f-rumext-id-1"><rect rx="0" ry="0" x="0" y="0" width="99.00000000000011" height="100" transform="matrix(1.000000, 0.000000, 0.000000, 1.000000, 0.000000, 0.000000)"/></clipPath></defs><g clip-path="url(#frame-clip-55b93b1f-5695-803a-8003-023dc3919c8f-rumext-id-1)" fill="none"><clipPath class="frame-clip-def frame-clip" id="frame-clip-55b93b1f-5695-803a-8003-023dc3919c8f-rumext-id-1"><rect rx="0" ry="0" x="0" y="0" width="99.00000000000011" height="100" transform="matrix(1.000000, 0.000000, 0.000000, 1.000000, 0.000000, 0.000000)"/></clipPath><g class="fills" id="fills-55b93b1f-5695-803a-8003-023dc3919c8f"><rect rx="0" ry="0" x="0" y="0" transform="matrix(1.000000, 0.000000, 0.000000, 1.000000, 0.000000, 0.000000)" width="99.00000000000011" height="100" class="frame-background"/></g><g class="frame-children"><g id="shape-55b93b1f-5695-803a-8003-023cbe941604"><g class="fills" id="fills-55b93b1f-5695-803a-8003-023cbe941604"><path rx="0" ry="0" d="M4.000,5.000L93.000,48.000L55.000,54.000L46.000,94.000L4.000,5.000Z"/></g><g id="strokes-55b93b1f-5695-803a-8003-023cbe941604" class="strokes"><g class="stroke-shape"><path rx="0" ry="0" d="M4.000,5.000L93.000,48.000L55.000,54.000L46.000,94.000L4.000,5.000Z" style="fill: none; stroke-width: 4; stroke: rgb(40, 228, 115); stroke-opacity: 1;"/></g></g></g></g></g></g></svg>