<svg xmlns:xlink="http://www.w3.org/1999/xlink" width="100" xmlns="http://www.w3.org/2000/svg" height="100" id="screenshot-c50ae509-7e5f-8073-8003-01aeccc8f221" viewBox="0 0 100 100" style="-webkit-print-color-adjust: exact;" fill="none" version="1.1"><g id="shape-c50ae509-7e5f-8073-8003-01aeccc8f221"><defs><clipPath class="frame-clip-def frame-clip" id="frame-clip-c50ae509-7e5f-8073-8003-01aeccc8f221-rumext-id-1"><rect rx="0" ry="0" x="0" y="0" width="100" height="100" transform="matrix(1.000000, 0.000000, 0.000000, 1.000000, 0.000000, 0.000000)"/></clipPath></defs><g clip-path="url(#frame-clip-c50ae509-7e5f-8073-8003-01aeccc8f221-rumext-id-1)" fill="none"><clipPath class="frame-clip-def frame-clip" id="frame-clip-c50ae509-7e5f-8073-8003-01aeccc8f221-rumext-id-1"><rect rx="0" ry="0" x="0" y="0" width="100" height="100" transform="matrix(1.000000, 0.000000, 0.000000, 1.000000, 0.000000, 0.000000)"/></clipPath><g class="fills" id="fills-c50ae509-7e5f-8073-8003-01aeccc8f221"><rect rx="0" ry="0" x="0" y="0" transform="matrix(1.000000, 0.000000, 0.000000, 1.000000, 0.000000, 0.000000)" width="100" height="100" class="frame-background"/></g><g class="frame-children"><g id="shape-55b93b1f-5695-803a-8003-0235897bf46f" rx="0" ry="0"><g id="shape-55b93b1f-5695-803a-8003-0234d5a1bbf9"><g class="fills" id="fills-55b93b1f-5695-803a-8003-0234d5a1bbf9"><rect rx="0" ry="0" x="31" y="22" transform="matrix(1.000000, 0.000000, 0.000000, 1.000000, 0.000000, 0.000000)" width="25" height="71.00000000000011" style="opacity: 1;"/></g><g id="strokes-55b93b1f-5695-803a-8003-0234d5a1bbf9" class="strokes"><g class="stroke-shape"><rect rx="0" ry="0" x="31" y="22" transform="matrix(1.000000, 0.000000, 0.000000, 1.000000, 0.000000, 0.000000)" width="25" height="71.00000000000011" style="opacity: 1; fill: none; stroke-width: 1; stroke: rgb(40, 228, 115); stroke-opacity: 1;"/></g></g></g><g id="shape-55b93b1f-5695-803a-8003-0234fd7f481a"><g class="fills" id="fills-55b93b1f-5695-803a-8003-0234fd7f481a"><rect rx="0" ry="0" x="21" y="8" transform="matrix(1.000000, 0.000000, 0.000000, 1.000000, 0.000000, 0.000000)" width="20" height="59" style="opacity: 1;"/></g><g id="strokes-55b93b1f-5695-803a-8003-0234fd7f481a" class="strokes"><g class="stroke-shape"><rect rx="0" ry="0" x="21" y="8" transform="matrix(1.000000, 0.000000, 0.000000, 1.000000, 0.000000, 0.000000)" width="20" height="59" style="opacity: 1; fill: none; stroke-width: 1; stroke: rgb(40, 228, 115); stroke-opacity: 1;"/></g></g></g><g id="shape-55b93b1f-5695-803a-8003-0235106da091"><g class="fills" id="fills-55b93b1f-5695-803a-8003-0235106da091"><rect rx="0" ry="0" x="68" y="8" transform="matrix(1.000000, 0.000000, 0.000000, 1.000000, 0.000000, 0.000000)" width="12" height="50" style="opacity: 1;"/></g><g id="strokes-55b93b1f-5695-803a-8003-0235106da091" class="strokes"><g class="stroke-shape"><rect rx="0" ry="0" x="68" y="8" transform="matrix(1.000000, 0.000000, 0.000000, 1.000000, 0.000000, 0.000000)" width="12" height="50" style="opacity: 1; fill: none; stroke-width: 1; stroke: rgb(40, 228, 115); stroke-opacity: 1;"/></g></g></g><g id="shape-55b93b1f-5695-803a-8003-02352c6e41dc"><g class="fills" id="fills-55b93b1f-5695-803a-8003-02352c6e41dc"><rect rx="0" ry="0" x="49" y="37" transform="matrix(1.000000, 0.000000, 0.000000, 1.000000, 0.000000, 0.000000)" width="24" height="50" style="opacity: 1;"/></g><g id="strokes-55b93b1f-5695-803a-8003-02352c6e41dc" class="strokes"><g class="stroke-shape"><rect rx="0" ry="0" x="49" y="37" transform="matrix(1.000000, 0.000000, 0.000000, 1.000000, 0.000000, 0.000000)" width="24" height="50" style="opacity: 1; fill: none; stroke-width: 1; stroke: rgb(40, 228, 115); stroke-opacity: 1;"/></g></g></g></g><g id="shape-55b93b1f-5695-803a-8003-023efc2bf03f" rx="0" ry="0"><g id="shape-55b93b1f-5695-803a-8003-023efc2bf040"><g class="fills" id="fills-55b93b1f-5695-803a-8003-023efc2bf040"><rect rx="0" ry="0" x="27" y="19" transform="matrix(1.000000, 0.000000, 0.000000, 1.000000, 0.000000, 0.000000)" width="25" height="71.00000000000011" style="opacity: 1;"/></g><g id="strokes-55b93b1f-5695-803a-8003-023efc2bf040" class="strokes"><g class="stroke-shape"><rect rx="0" ry="0" x="27" y="19" transform="matrix(1.000000, 0.000000, 0.000000, 1.000000, 0.000000, 0.000000)" width="25" height="71.00000000000011" style="opacity: 1; fill: none; stroke-width: 3; stroke: rgb(40, 228, 115); stroke-opacity: 1;"/></g></g></g><g id="shape-55b93b1f-5695-803a-8003-023efc2bf041"><g class="fills" id="fills-55b93b1f-5695-803a-8003-023efc2bf041"><rect rx="0" ry="0" x="17" y="5" transform="matrix(1.000000, 0.000000, 0.000000, 1.000000, 0.000000, 0.000000)" width="20" height="59" style="opacity: 1;"/></g><g id="strokes-55b93b1f-5695-803a-8003-023efc2bf041" class="strokes"><g class="stroke-shape"><rect rx="0" ry="0" x="17" y="5" transform="matrix(1.000000, 0.000000, 0.000000, 1.000000, 0.000000, 0.000000)" width="20" height="59" style="opacity: 1; fill: none; stroke-width: 3; stroke: rgb(40, 228, 115); stroke-opacity: 1;"/></g></g></g><g id="shape-55b93b1f-5695-803a-8003-023efc2bf042"><g class="fills" id="fills-55b93b1f-5695-803a-8003-023efc2bf042"><rect rx="0" ry="0" x="64" y="5" transform="matrix(1.000000, 0.000000, 0.000000, 1.000000, 0.000000, 0.000000)" width="12" height="50" style="opacity: 1;"/></g><g id="strokes-55b93b1f-5695-803a-8003-023efc2bf042" class="strokes"><g class="stroke-shape"><rect rx="0" ry="0" x="64" y="5" transform="matrix(1.000000, 0.000000, 0.000000, 1.000000, 0.000000, 0.000000)" width="12" height="50" style="opacity: 1; fill: none; stroke-width: 3; stroke: rgb(40, 228, 115); stroke-opacity: 1;"/></g></g></g><g id="shape-55b93b1f-5695-803a-8003-023efc2bf043"><g class="fills" id="fills-55b93b1f-5695-803a-8003-023efc2bf043"><rect rx="0" ry="0" x="45" y="34" transform="matrix(1.000000, 0.000000, 0.000000, 1.000000, 0.000000, 0.000000)" width="24" height="50" style="opacity: 1;"/></g><g id="strokes-55b93b1f-5695-803a-8003-023efc2bf043" class="strokes"><g class="stroke-shape"><rect rx="0" ry="0" x="45" y="34" transform="matrix(1.000000, 0.000000, 0.000000, 1.000000, 0.000000, 0.000000)" width="24" height="50" style="opacity: 1; fill: none; stroke-width: 3; stroke: rgb(40, 228, 115); stroke-opacity: 1;"/></g></g></g></g></g></g></g></svg>