<svg xmlns:xlink="http://www.w3.org/1999/xlink" width="100" xmlns="http://www.w3.org/2000/svg" height="100" id="screenshot-55b93b1f-5695-803a-8003-0246343c1a8f" viewBox="0 0 100 100" style="-webkit-print-color-adjust: exact;" fill="none" version="1.1"><g id="shape-55b93b1f-5695-803a-8003-0246343c1a8f"><defs><clipPath class="frame-clip-def frame-clip" id="frame-clip-55b93b1f-5695-803a-8003-0246343c1a8f-rumext-id-1"><rect rx="0" ry="0" x="0" y="0" width="100" height="100" transform="matrix(1.000000, 0.000000, 0.000000, 1.000000, 0.000000, 0.000000)"/></clipPath></defs><g clip-path="url(#frame-clip-55b93b1f-5695-803a-8003-0246343c1a8f-rumext-id-1)" fill="none"><clipPath class="frame-clip-def frame-clip" id="frame-clip-55b93b1f-5695-803a-8003-0246343c1a8f-rumext-id-1"><rect rx="0" ry="0" x="0" y="0" width="100" height="100" transform="matrix(1.000000, 0.000000, 0.000000, 1.000000, 0.000000, 0.000000)"/></clipPath><g class="fills" id="fills-55b93b1f-5695-803a-8003-0246343c1a8f"><rect rx="0" ry="0" x="0" y="0" transform="matrix(1.000000, 0.000000, 0.000000, 1.000000, 0.000000, 0.000000)" width="100" height="100" class="frame-background"/></g><g class="frame-children"><g id="shape-652a5097-ef02-809b-8003-024d1adc10b2"><g class="fills" id="fills-652a5097-ef02-809b-8003-024d1adc10b2"><path rx="0" ry="0" d="M-5.757,68.000L20.574,94.331L33.841,107.598L29.598,111.841L-10.000,72.243L-5.757,68.000Z" style="fill: rgb(40, 228, 115); fill-opacity: 1;"/></g></g><g id="shape-652a5097-ef02-809b-8003-024f161e44fe"><g class="fills" id="fills-652a5097-ef02-809b-8003-024f161e44fe"><rect rx="0" ry="0" x="-22.159379566437224" y="104.84062043356278" transform="matrix(0.707107, 0.707107, -0.707107, 0.707107, 77.965512, 27.455844)" width="56" height="6.0000000000001705" style="fill: rgb(40, 228, 115); fill-opacity: 1;"/></g></g><g id="shape-652a5097-ef02-809b-8003-024d1b19ec40"><g class="fills" id="fills-652a5097-ef02-809b-8003-024d1b19ec40"><rect rx="0" ry="0" x="-19.912427893639347" y="72.58757210636065" transform="matrix(0.707107, 0.707107, -0.707107, 0.707107, 60.650018, 4.753048)" width="89" height="5.9999999999998295" style="fill: rgb(40, 228, 115); fill-opacity: 1;"/></g></g><g id="shape-652a5097-ef02-809b-8003-024d1caed641"><g class="fills" id="fills-652a5097-ef02-809b-8003-024d1caed641"><rect rx="0" ry="0" x="-24.89161261346601" y="58.608387386534446" transform="matrix(0.707107, 0.707107, -0.707107, 0.707107, 54.286057, -7.841360)" width="123" height="6" style="fill: rgb(40, 228, 115); fill-opacity: 1;"/></g></g><g id="shape-55b93b1f-5695-803a-8003-0249c7866c41"><g class="fills" id="fills-55b93b1f-5695-803a-8003-0249c7866c41"><rect rx="0" ry="0" x="-29.577904114483204" y="46.92209588551674" transform="matrix(0.707107, 0.707107, -0.707107, 0.707107, 49.336309, -19.264196)" width="155" height="5.999999999999886" style="fill: rgb(40, 228, 115); fill-opacity: 1;"/></g></g><g id="shape-652a5097-ef02-809b-8003-024d05fa1094"><g class="fills" id="fills-652a5097-ef02-809b-8003-024d05fa1094"><rect rx="0" ry="0" x="-28.431457505076537" y="23.568542494923776" transform="matrix(0.707107, 0.707107, -0.707107, 0.707107, 33.012193, -26.561400)" width="154" height="6" style="fill: rgb(40, 228, 115); fill-opacity: 1;"/></g></g><g id="shape-652a5097-ef02-809b-8003-024d0700bce9"><g class="fills" id="fills-652a5097-ef02-809b-8003-024d0700bce9"><rect rx="0" ry="0" x="22.3302127934802" y="20.83021279348037" transform="matrix(0.707107, 0.707107, -0.707107, 0.707107, 38.181981, -44.519030)" width="101" height="6.000000000000085" style="fill: rgb(40, 228, 115); fill-opacity: 1;"/></g></g><g id="shape-652a5097-ef02-809b-8003-024d070875c3"><g class="fills" id="fills-652a5097-ef02-809b-8003-024d070875c3"><rect rx="0" ry="0" x="45.723611075682015" y="3.2236110756821006" transform="matrix(0.707107, 0.707107, -0.707107, 0.707107, 28.190602, -55.610913)" width="71" height="6.000000000000142" style="fill: rgb(40, 228, 115); fill-opacity: 1;"/></g></g><g id="shape-652a5097-ef02-809b-8003-024f01f40960"><g class="fills" id="fills-652a5097-ef02-809b-8003-024f01f40960"><rect rx="0" ry="0" x="44.447222151364144" y="-21.5527778486358" transform="matrix(0.707107, 0.707107, -0.707107, 0.707107, 10.297204, -61.965206)" width="71" height="6.000000000000142" style="fill: rgb(40, 228, 115); fill-opacity: 1;"/></g></g></g></g></g></svg>
